<svg width="64" height="64" viewBox="0 0 64 64" fill="none" xmlns="http://www.w3.org/2000/svg">
  <circle cx="32" cy="32" r="30" fill="#24292F"/>
  <path d="M32 12C20.954 12 12 20.954 12 32c0 8.84 5.736 16.34 13.694 18.988.999.184 1.366-.433 1.366-.962 0-.474-.017-1.732-.027-3.4-5.565 1.21-6.74-2.683-6.74-2.683-.91-2.312-2.221-2.927-2.221-2.927-1.816-1.241.137-1.216.137-1.216 2.009.141 3.066 2.062 3.066 2.062 1.785 3.058 4.683 2.175 5.824 1.664.181-1.294.698-2.176 1.271-2.676-4.447-.506-9.122-2.223-9.122-9.894 0-2.186.78-3.973 2.062-5.374-.207-.506-.894-2.542.196-5.3 0 0 1.68-.538 5.5 2.051 1.596-.444 3.307-.666 5.009-.674 1.699.008 3.411.23 5.009.674 3.817-2.589 5.494-2.051 5.494-2.051 1.093 2.758.406 4.794.199 5.3 1.285 1.401 2.059 3.188 2.059 5.374 0 7.689-4.683 9.384-9.145 9.881.719.619 1.36 1.841 1.36 3.71 0 2.678-.024 4.838-.024 5.494 0 .534.36 1.155 1.374.96C46.27 48.333 52 40.837 52 32c0-11.046-8.954-20-20-20z" fill="white"/>
</svg>
