<svg width="64" height="64" viewBox="0 0 64 64" fill="none" xmlns="http://www.w3.org/2000/svg"><rect width="64" height="64" rx="8" fill="#fff"/><path fill="#3776AB" d="M32 12c-5 0-4.5 2.2-4.5 2.2v2.3H32v.7h-8.5s-3.2-.4-3.2 4.3 2.7 4 2.7 4h1.8v-2.2s-.1-2.7 4.5-2.7h4.5s2.7 0 2.7-3.2v-3.6c0-1.3-3.6-1.8-9-1.8zm-.9 1.8c.5 0 .9.4.9.9s-.4.9-.9.9-.9-.4-.9-.9.4-.9.9-.9z"/><path fill="#FFD43B" d="M32 52c5 0 4.5-2.2 4.5-2.2v-2.3H32v-.7h8.5s3.2.4 3.2-4.3-2.7-4-2.7-4h-1.8v2.2s.1 2.7-4.5 2.7h-4.5s-2.7 0-2.7 3.2v3.6c0 1.3 3.6 1.8 9 1.8zm.9-1.8c-.5 0-.9-.4-.9-.9s.4-.9.9-.9.9.4.9.9-.4.9-.9.9z"/></svg>
